<svg xmlns="http://www.w3.org/2000/svg" xmlns:xlink="http://www.w3.org/1999/xlink" width="206" height="28" viewBox="0 0 206 28">
	<defs>
		<clipPath id="clip-path">
			<rect id="사각형_105" data-name="사각형 105" width="206" height="28" fill="none" />
		</clipPath>
	</defs>
	<g id="ci" transform="translate(-293.934 -279.769)">
		<g id="그룹_109" data-name="그룹 109" transform="translate(293.934 279.768)">
			<g id="그룹_108" data-name="그룹 108" transform="translate(0 0)" clip-path="url(#clip-path)">
				<path id="패스_19572" data-name="패스 19572" d="M13.995,28A14,14,0,1,1,24.713,5.01,3.1,3.1,0,1,1,19.969,9a7.8,7.8,0,1,0,0,10.022A3.1,3.1,0,1,1,24.713,23a13.967,13.967,0,0,1-10.718,5" transform="translate(0 -0.002)" fill="#00c896" />
				<path id="패스_19573" data-name="패스 19573" d="M95.805,25.591c-1.453-.979-2.921-2.568-2.971-4.221.049-2.429,2.61-4.136,5.775-1.435,2,1.654,4.79,3.113,6.939,1.294a2.67,2.67,0,0,0,.164-3.869,6.025,6.025,0,0,0-2.422-1.2l-2.685-.772a15.694,15.694,0,0,1-4.638-2c-2.671-1.749-3.132-5.857-1.832-8.626C96.148.406,101.854-.722,106.2.413A7.954,7.954,0,0,1,110.8,3.2a2.508,2.508,0,0,1-.345,3.748,3.847,3.847,0,0,1-4.059-.388,8.216,8.216,0,0,0-3.755-1.345c-1.462-.044-3.061.993-3.05,2.48a1.918,1.918,0,0,0,.71,1.587,6.918,6.918,0,0,0,2.584,1.018c3.326.9,6.848,1.683,8.686,4.6a8.778,8.778,0,0,1,.407,7.773c-1.482,3.543-5.459,5.346-9.177,5.29a12.557,12.557,0,0,1-7-2.371" transform="translate(-17.55 0)" fill="#00c896" />
				<path id="패스_19574" data-name="패스 19574" d="M77.562,23.052l1.36,2.916a3.165,3.165,0,1,0,5.746-2.657l0,0L75.1,2.223h0a3.166,3.166,0,0,0-5.869,0h0L59.665,23.31l0,0a3.165,3.165,0,1,0,5.746,2.657l1.359-2.916Zm-8.63-5.411,3.236-8.036L75.4,17.641Z" transform="translate(-11.224 -0.047)" fill="#00c896" />
				<path id="패스_19575" data-name="패스 19575" d="M122.952,25.591c-1.453-.979-2.921-2.568-2.972-4.221.049-2.429,2.61-4.136,5.776-1.435,2,1.654,4.789,3.113,6.939,1.294a2.67,2.67,0,0,0,.164-3.869,6.036,6.036,0,0,0-2.422-1.2l-2.685-.772a15.71,15.71,0,0,1-4.639-2c-2.671-1.749-3.132-5.857-1.831-8.626C123.294.406,129-.722,133.348.413a7.957,7.957,0,0,1,4.6,2.787,2.508,2.508,0,0,1-.345,3.748,3.849,3.849,0,0,1-4.06-.388,8.209,8.209,0,0,0-3.755-1.345c-1.461-.044-3.061.993-3.05,2.48a1.92,1.92,0,0,0,.71,1.587,6.924,6.924,0,0,0,2.585,1.018c3.326.9,6.848,1.683,8.686,4.6a8.778,8.778,0,0,1,.407,7.773c-1.482,3.543-5.459,5.346-9.177,5.29a12.557,12.557,0,0,1-7-2.371" transform="translate(-22.682 0)" fill="#00c896" />
				<path id="패스_19576" data-name="패스 19576" d="M235.667,21.778c3.46,0,5.8-2.26,5.8-4.9h-5.188a2.865,2.865,0,0,1,0-5.731h8.77a2.865,2.865,0,0,1,2.865,2.865v2.865c0,6.46-5.529,11.083-12.244,11.083a13.978,13.978,0,1,1,8.985-24.684,3.094,3.094,0,0,1-3.98,4.739,7.789,7.789,0,1,0-5,13.757" transform="translate(-41.91 -0.002)" fill="#00c896" />
				<path id="패스_19577" data-name="패스 19577" d="M49.391,21.288h-8.1V3.418a3.172,3.172,0,0,0-6.344,0V24.457a3.169,3.169,0,0,0,3.169,3.169H49.391a3.169,3.169,0,1,0,0-6.337" transform="translate(-6.607 -0.047)" fill="#00c896" />
				<path id="패스_19578" data-name="패스 19578" d="M165.009.485H148.68a3.169,3.169,0,1,0,0,6.337h4.993V24.69a3.172,3.172,0,1,0,6.343,0V6.822h4.993a3.169,3.169,0,0,0,0-6.337" transform="translate(-27.509 -0.092)" fill="#00c896" />
				<path id="패스_19579" data-name="패스 19579" d="M179.489.246a3.172,3.172,0,0,0-3.172,3.172V24.645a3.172,3.172,0,0,0,6.343,0V3.418A3.172,3.172,0,0,0,179.489.246" transform="translate(-33.333 -0.047)" fill="#00c896" />
				<path id="패스_19580" data-name="패스 19580" d="M194.481,1.446a3.169,3.169,0,0,0-5.652,1.971V24.644a3.172,3.172,0,1,0,6.343,0V12l11.743,14.618a3.169,3.169,0,0,0,5.652-1.971V3.417a3.172,3.172,0,1,0-6.343,0V16.064Z" transform="translate(-35.698 -0.047)" fill="#00c896" />
			</g>
		</g>
	</g>
</svg>
